<svg width="175" height="25" viewBox="0 0 175 25" fill="none" xmlns="http://www.w3.org/2000/svg">
<path d="M29.869 20.1121H33.2329V15.212H38.4682C41.9031 15.212 45.0978 12.6417 45.0978 9.2549C45.0978 5.67619 42.0713 3.29805 38.4682 3.29805H29.869V20.1121ZM41.7353 9.2549C41.7353 10.8404 40.318 12.0654 38.4684 12.0654H33.2329V6.39611H38.4682C40.342 6.39611 41.7353 7.59785 41.7353 9.2549ZM62.2243 20.1121V8.10172H59.2458L58.9094 9.68699C57.6845 8.43787 55.9071 7.74141 53.8893 7.74141C49.878 7.74141 46.8996 10.4555 46.8996 14.1306C46.8996 17.7579 49.9022 20.4719 53.8893 20.4719C55.931 20.4719 57.6845 19.7518 58.9094 18.5261L59.2458 20.1116L62.2243 20.1121ZM50.2613 14.1311C50.2613 12.1376 52.087 10.6961 54.6092 10.6961C57.1313 10.6961 58.8607 12.113 58.8607 14.1311C58.8607 16.1247 57.155 17.4949 54.6092 17.4949C52.0879 17.494 50.2622 16.0766 50.2622 14.1311H50.2613ZM73.8011 24.844L79.8312 8.10172H76.2996L73.1288 16.8927H70.9913L67.7969 8.10172H64.2419L68.6137 20.1121H71.9524L70.2468 24.844H73.8011ZM96.572 15.4283C96.572 7.64547 84.6822 11.5369 84.6822 7.81366C84.6822 6.6131 86.2194 5.72428 88.5736 5.72428C90.7352 5.72428 92.5129 6.78129 92.8012 8.07827H96.2835C96.0208 5.02735 92.9461 2.9375 88.5743 2.9375C84.4427 2.9375 81.32 4.76322 81.32 7.71772C81.32 15.4041 93.21 11.3211 93.21 15.3323C93.21 16.6295 91.6008 17.5901 89.3186 17.5901C86.8687 17.5901 84.971 16.5573 84.6107 14.9479H81.1047C81.3454 18.2624 84.8514 20.4724 89.367 20.4724C93.8586 20.4724 96.5729 18.2146 96.5729 15.4283H96.572ZM113.074 14.9479C113.114 14.6776 113.129 14.4043 113.121 14.1313C113.121 10.3121 110.047 7.74212 105.939 7.74212C101.784 7.74212 98.709 10.4562 98.709 14.1313C98.709 17.7586 101.808 20.4726 105.939 20.4726C109.23 20.4726 111.8 18.8876 112.713 16.4377H109.302C108.677 17.3018 107.525 17.8306 106.083 17.8306C104.065 17.8306 102.528 16.6779 102.168 14.9481L113.074 14.9479ZM102.169 13.2659C102.529 11.584 103.994 10.4555 105.94 10.4555C107.91 10.4555 109.327 11.5606 109.663 13.2659H102.169ZM118.527 14.1304C118.527 12.1845 120.208 10.7914 122.514 10.7914C124.314 10.7914 125.66 11.5362 126.213 12.7609H129.695C129.047 9.68652 126.213 7.74117 122.513 7.74117C118.285 7.74117 115.163 10.4552 115.163 14.1304C115.163 17.7576 118.31 20.4717 122.513 20.4717C126.236 20.4717 129.095 18.4782 129.719 15.4276H126.237C125.685 16.6767 124.339 17.3973 122.514 17.3973C120.233 17.398 118.527 16.0527 118.527 14.1311L118.527 14.1304ZM143.148 13.6987C143.148 15.8364 141.659 17.3499 139.545 17.3499C137.407 17.3499 135.894 15.8608 135.894 13.6987V8.10172H132.53V13.6987C132.53 17.6861 135.052 20.4724 138.655 20.4724C139.542 20.4757 140.417 20.2631 141.203 19.853C141.99 19.4429 142.665 18.8476 143.171 18.1184L143.484 20.1121H146.511V8.10172H143.147L143.148 13.6987ZM159.049 7.74188C156.479 7.74188 154.485 9.08695 153.38 11.2242L153.02 8.10172H150.018V20.1121H153.381V16.7009C153.381 13.3384 155.471 11.2964 159.05 11.2964L159.049 7.74188ZM174.951 14.9479C174.99 14.6776 175.006 14.4043 174.998 14.1313C174.998 10.3121 171.923 7.74212 167.816 7.74212C163.661 7.74212 160.586 10.4562 160.586 14.1313C160.586 17.7586 163.685 20.4726 167.816 20.4726C171.107 20.4726 173.677 18.8876 174.59 16.4377H171.179C170.554 17.3018 169.402 17.8306 167.96 17.8306C165.942 17.8306 164.405 16.6779 164.045 14.9481L174.951 14.9479ZM164.045 13.2659C164.406 11.584 165.871 10.4555 167.817 10.4555C169.786 10.4555 171.204 11.5606 171.54 13.2659H164.045Z" fill="#5223BC"/>
<path d="M11.4816 0.221069C13.7526 0.220929 15.9727 0.894236 17.8611 2.15585C19.7494 3.41745 21.2212 5.2107 22.0904 7.30881C22.9596 9.40692 23.1871 11.7157 22.7441 13.9431C22.3011 16.1705 21.2076 18.2165 19.6018 19.8224C17.996 21.4283 15.9501 22.5219 13.7227 22.965C11.4953 23.4082 9.18656 23.1808 7.0884 22.3118C4.99023 21.4427 3.1969 19.971 1.93517 18.0827C0.673445 16.1944 4.3498e-09 13.9744 0 11.7034C-5.83259e-09 8.65822 1.20964 5.73775 3.36285 3.58442C5.51605 1.43108 8.43644 0.221258 11.4816 0.221069Z" fill="#DFF34F"/>
<path d="M6.15839 17.611L16.9248 6.83862L6.16619 6.84193V3.28857L19.4406 3.28455H22.9992V6.83791H22.9952L22.9992 20.1173H19.4458L19.4425 9.34729L8.67107 20.1246L6.15839 17.611Z" fill="url(#paint0_linear_467_506)"/>
<defs>
<linearGradient id="paint0_linear_467_506" x1="6.15839" y1="9.63326" x2="34.0972" y2="12.9173" gradientUnits="userSpaceOnUse">
<stop stop-color="#5223BC"/>
<stop offset="1" stop-color="#DFF34F"/>
</linearGradient>
</defs>
</svg>
