<svg width="205" height="29" viewBox="0 0 205 29" fill="none" xmlns="http://www.w3.org/2000/svg">
<path d="M34.9893 23.3009H38.9298V17.5608H45.0625C49.0863 17.5608 52.8287 14.5499 52.8287 10.5825C52.8287 6.39028 49.2833 3.60445 45.0625 3.60445H34.9893V23.3009ZM48.8898 10.5825C48.8898 12.4398 47.2295 13.8747 45.0628 13.8747H38.9298V7.23361H45.0625C47.2576 7.23361 48.8898 8.64137 48.8898 10.5825ZM72.8911 23.3009V9.23161H69.4021L69.008 11.0886C67.5731 9.62538 65.491 8.80953 63.1272 8.80953C58.4283 8.80953 54.9393 11.9889 54.9393 16.294C54.9393 20.5431 58.4566 23.7224 63.1272 23.7224C65.519 23.7224 67.5731 22.8788 69.008 21.443L69.4021 23.3003L72.8911 23.3009ZM58.8773 16.2946C58.8773 13.9594 61.016 12.2708 63.9706 12.2708C66.9251 12.2708 68.9509 13.9305 68.9509 16.2946C68.9509 18.63 66.9529 20.2351 63.9706 20.2351C61.0171 20.2339 58.8784 18.5737 58.8784 16.2946H58.8773ZM86.4525 28.844L93.5163 9.23161H89.3793L85.665 19.5297H83.1611L79.419 9.23161H75.2546L80.3758 23.3009H84.2869L82.2889 28.844H86.4525ZM113.127 17.8141C113.127 8.69714 99.199 13.2556 99.199 8.89417C99.199 7.4878 101 6.44661 103.757 6.44661C106.29 6.44661 108.372 7.68482 108.71 9.20414H112.789C112.481 5.63021 108.88 3.1821 103.758 3.1821C98.9184 3.1821 95.2604 5.32079 95.2604 8.78178C95.2604 17.7858 109.189 13.0028 109.189 17.7018C109.189 19.2213 107.304 20.3466 104.63 20.3466C101.76 20.3466 99.5372 19.1367 99.1152 17.2514H95.0082C95.2901 21.1342 99.3971 23.723 104.687 23.723C109.949 23.723 113.128 21.0781 113.128 17.8141H113.127ZM132.458 17.2514C132.504 16.9348 132.523 16.6147 132.513 16.2948C132.513 11.821 128.911 8.81036 124.1 8.81036C119.232 8.81036 115.63 11.9897 115.63 16.2948C115.63 20.5439 119.26 23.7232 124.1 23.7232C127.955 23.7232 130.966 21.8665 132.035 18.9966H128.039C127.308 20.0089 125.958 20.6283 124.269 20.6283C121.905 20.6283 120.104 19.278 119.682 17.2516L132.458 17.2514ZM119.683 15.2811C120.105 13.3109 121.822 11.9889 124.101 11.9889C126.408 11.9889 128.069 13.2834 128.462 15.2811H119.683ZM138.845 16.2937C138.845 14.0143 140.815 12.3823 143.516 12.3823C145.625 12.3823 147.202 13.2548 147.849 14.6895H151.929C151.169 11.0881 147.849 8.80925 143.515 8.80925C138.563 8.80925 134.905 11.9886 134.905 16.2937C134.905 20.5428 138.591 23.7221 143.515 23.7221C147.876 23.7221 151.225 21.387 151.957 17.8133H147.877C147.23 19.2766 145.654 20.1207 143.516 20.1207C140.844 20.1216 138.846 18.5456 138.846 16.2946L138.845 16.2937ZM167.687 15.7881C167.687 18.2923 165.943 20.0652 163.467 20.0652C160.963 20.0652 159.19 18.3209 159.19 15.7881V9.23161H155.249V15.7881C155.249 20.459 158.204 23.723 162.424 23.723C163.463 23.7268 164.488 23.4778 165.41 22.9974C166.331 22.517 167.122 21.8196 167.714 20.9654L168.081 23.3009H171.627V9.23161H167.686L167.687 15.7881ZM186.315 8.81009C183.304 8.81009 180.968 10.3857 179.674 12.8893L179.252 9.23161H175.735V23.3009H179.675V19.3049C179.675 15.366 182.123 12.974 186.316 12.974L186.315 8.81009ZM204.942 17.2514C204.988 16.9348 205.007 16.6147 204.997 16.2948C204.997 11.821 201.396 8.81036 196.584 8.81036C191.717 8.81036 188.115 11.9897 188.115 16.2948C188.115 20.5439 191.745 23.7232 196.584 23.7232C200.439 23.7232 203.45 21.8665 204.519 18.9966H200.523C199.792 20.0089 198.442 20.6283 196.753 20.6283C194.389 20.6283 192.588 19.278 192.166 17.2516L204.942 17.2514ZM192.167 15.2811C192.589 13.3109 194.306 11.9889 196.585 11.9889C198.892 11.9889 200.553 13.2834 200.946 15.2811H192.167Z" fill="white"/>
<path d="M13.4499 2.57748e-08C16.1102 -0.00016463 18.7109 0.788566 20.9229 2.26645C23.135 3.74434 24.8592 5.84499 25.8773 8.30278C26.8955 10.7606 27.162 13.4651 26.6431 16.0743C26.1242 18.6836 24.8432 21.0803 22.9621 22.9615C21.081 24.8427 18.6843 26.1239 16.0751 26.6429C13.4659 27.162 10.7614 26.8957 8.30355 25.8777C5.8457 24.8596 3.74494 23.1356 2.26691 20.9236C0.788892 18.7117 5.09548e-09 16.1111 0 13.4507C-6.83246e-09 9.88351 1.41701 6.4624 3.93933 3.93992C6.46165 1.41744 9.88268 0.00022081 13.4499 2.57748e-08Z" fill="#DFF34F"/>
<path d="M7.21411 20.371L19.8262 7.75199L7.22326 7.75588V3.59337L22.7733 3.58865H26.9419V7.75116H26.9372L26.9419 23.307H22.7794L22.7755 10.6907L10.1575 23.3156L7.21411 20.371Z" fill="url(#paint0_linear_407_4877)"/>
<defs>
<linearGradient id="paint0_linear_407_4877" x1="7.21411" y1="11.0257" x2="39.9424" y2="14.8728" gradientUnits="userSpaceOnUse">
<stop stop-color="#5223BC"/>
<stop offset="1" stop-color="#DFF34F"/>
</linearGradient>
</defs>
</svg>
