<svg width="20" height="20" viewBox="0 0 20 20" fill="none" xmlns="http://www.w3.org/2000/svg">
<path d="M16.9132 8.16328L10.6632 14.4133C10.5762 14.5007 10.4727 14.57 10.3587 14.6173C10.2447 14.6647 10.1226 14.689 9.99918 14.689C9.8758 14.689 9.75362 14.6647 9.63967 14.6173C9.52571 14.57 9.42222 14.5007 9.33512 14.4133L3.08512 8.16328C2.909 7.98716 2.81006 7.74829 2.81006 7.49922C2.81006 7.25015 2.909 7.01128 3.08512 6.83516C3.26124 6.65904 3.50011 6.56009 3.74918 6.56009C3.99826 6.56009 4.23713 6.65904 4.41325 6.83516L9.99997 12.4219L15.5867 6.83437C15.7628 6.65825 16.0017 6.55931 16.2507 6.55931C16.4998 6.55931 16.7387 6.65825 16.9148 6.83437C17.0909 7.0105 17.1899 7.24937 17.1899 7.49844C17.1899 7.74751 17.0909 7.98638 16.9148 8.1625L16.9132 8.16328Z" fill="black"/>
</svg>
